<?xml version="1.0" encoding="utf-8"?>
<svg xmlns="http://www.w3.org/2000/svg" version="1.1" width="1000" height="800">

<line x1="15" y1="0" x2="1000" y2="0" stroke="lightgrey" />
<text x="5" y="-5" fill="lightgrey" >0</text>
<line x1="15" y1="50" x2="1000" y2="50" stroke="lightgrey" />
<text x="5" y="45" fill="lightgrey" >50</text>
<line x1="15" y1="100" x2="1000" y2="100" stroke="lightgrey" />
<text x="5" y="95" fill="lightgrey" >100</text>
<line x1="15" y1="150" x2="1000" y2="150" stroke="lightgrey" />
<text x="5" y="145" fill="lightgrey" >150</text>
<line x1="15" y1="200" x2="1000" y2="200" stroke="lightgrey" />
<text x="5" y="195" fill="lightgrey" >200</text>
<line x1="15" y1="250" x2="1000" y2="250" stroke="lightgrey" />
<text x="5" y="245" fill="lightgrey" >250</text>
<line x1="15" y1="300" x2="1000" y2="300" stroke="lightgrey" />
<text x="5" y="295" fill="lightgrey" >300</text>
<line x1="15" y1="350" x2="1000" y2="350" stroke="lightgrey" />
<text x="5" y="345" fill="lightgrey" >350</text>
<line x1="15" y1="400" x2="1000" y2="400" stroke="lightgrey" />
<text x="5" y="395" fill="lightgrey" >400</text>
<line x1="15" y1="450" x2="1000" y2="450" stroke="lightgrey" />
<text x="5" y="445" fill="lightgrey" >450</text>
<line x1="15" y1="500" x2="1000" y2="500" stroke="lightgrey" />
<text x="5" y="495" fill="lightgrey" >500</text>
<line x1="15" y1="550" x2="1000" y2="550" stroke="lightgrey" />
<text x="5" y="545" fill="lightgrey" >550</text>
<line x1="15" y1="600" x2="1000" y2="600" stroke="lightgrey" />
<text x="5" y="595" fill="lightgrey" >600</text>
<line x1="15" y1="650" x2="1000" y2="650" stroke="lightgrey" />
<text x="5" y="645" fill="lightgrey" >650</text>
<line x1="15" y1="700" x2="1000" y2="700" stroke="lightgrey" />
<text x="5" y="695" fill="lightgrey" >700</text>
<line x1="15" y1="750" x2="1000" y2="750" stroke="lightgrey" />
<text x="5" y="745" fill="lightgrey" >750</text>
<line x1="15" y1="800" x2="1000" y2="800" stroke="lightgrey" />
<text x="5" y="795" fill="lightgrey" >800</text>
<line x1="0" y1="15" x2="0" y2="800" stroke="lightgrey" />
<text x="5" y="15" fill="lightgrey" >0</text>
<line x1="50" y1="15" x2="50" y2="800" stroke="lightgrey" />
<text x="55" y="15" fill="lightgrey" >50</text>
<line x1="100" y1="15" x2="100" y2="800" stroke="lightgrey" />
<text x="105" y="15" fill="lightgrey" >100</text>
<line x1="150" y1="15" x2="150" y2="800" stroke="lightgrey" />
<text x="155" y="15" fill="lightgrey" >150</text>
<line x1="200" y1="15" x2="200" y2="800" stroke="lightgrey" />
<text x="205" y="15" fill="lightgrey" >200</text>
<line x1="250" y1="15" x2="250" y2="800" stroke="lightgrey" />
<text x="255" y="15" fill="lightgrey" >250</text>
<line x1="300" y1="15" x2="300" y2="800" stroke="lightgrey" />
<text x="305" y="15" fill="lightgrey" >300</text>
<line x1="350" y1="15" x2="350" y2="800" stroke="lightgrey" />
<text x="355" y="15" fill="lightgrey" >350</text>
<line x1="400" y1="15" x2="400" y2="800" stroke="lightgrey" />
<text x="405" y="15" fill="lightgrey" >400</text>
<line x1="450" y1="15" x2="450" y2="800" stroke="lightgrey" />
<text x="455" y="15" fill="lightgrey" >450</text>
<line x1="500" y1="15" x2="500" y2="800" stroke="lightgrey" />
<text x="505" y="15" fill="lightgrey" >500</text>
<line x1="550" y1="15" x2="550" y2="800" stroke="lightgrey" />
<text x="555" y="15" fill="lightgrey" >550</text>
<line x1="600" y1="15" x2="600" y2="800" stroke="lightgrey" />
<text x="605" y="15" fill="lightgrey" >600</text>
<line x1="650" y1="15" x2="650" y2="800" stroke="lightgrey" />
<text x="655" y="15" fill="lightgrey" >650</text>
<line x1="700" y1="15" x2="700" y2="800" stroke="lightgrey" />
<text x="705" y="15" fill="lightgrey" >700</text>
<line x1="750" y1="15" x2="750" y2="800" stroke="lightgrey" />
<text x="755" y="15" fill="lightgrey" >750</text>
<line x1="800" y1="15" x2="800" y2="800" stroke="lightgrey" />
<text x="805" y="15" fill="lightgrey" >800</text>
<line x1="850" y1="15" x2="850" y2="800" stroke="lightgrey" />
<text x="855" y="15" fill="lightgrey" >850</text>
<line x1="900" y1="15" x2="900" y2="800" stroke="lightgrey" />
<text x="905" y="15" fill="lightgrey" >900</text>
<line x1="950" y1="15" x2="950" y2="800" stroke="lightgrey" />
<text x="955" y="15" fill="lightgrey" >950</text>
<line x1="1000" y1="15" x2="1000" y2="800" stroke="lightgrey" />
<text x="1005" y="15" fill="lightgrey" >1000</text>
<line x1="95" y1="195" x2="105" y2="205" stroke="red" />
<line x1="95" y1="205" x2="105" y2="195" stroke="red" />
<text x="100" y="185" fill="blue" >A</text>
<line x1="295" y1="395" x2="305" y2="405" stroke="red" />
<line x1="295" y1="405" x2="305" y2="395" stroke="red" />
<text x="300" y="385" fill="blue" >B</text>
<line x1="595" y1="95" x2="605" y2="105" stroke="red" />
<line x1="595" y1="105" x2="605" y2="95" stroke="red" />
<text x="600" y="85" fill="blue" >C</text>
<line x1="195" y1="195" x2="205" y2="205" stroke="red" />
<line x1="195" y1="205" x2="205" y2="195" stroke="red" />
<text x="200" y="185" fill="blue" >D</text>
<line x1="300" y1="400" x2="100" y2="200" stroke="blue" />
<text x="200" y="300" fill="orange" >2</text>
<line x1="100" y1="200" x2="200" y2="200" stroke="blue" />
<text x="150" y="200" fill="orange" >1</text>
<line x1="600" y1="100" x2="300" y2="400" stroke="blue" />
<text x="450" y="250" fill="orange" >5</text>
  

<defs>
    <radialGradient id="redball" cx="30%" cy="30%" r="100%" fx="30%" fy="30%">
      <stop offset="0%" style="stop-color:rgb(255,250,250)" />
      <stop offset="3%" style="stop-color:rgb(255,250,250)" />
      <stop offset="7%" style="stop-color:rgb(255,160,160)" />
      <stop offset="70%" style="stop-color:rgb(255,0,0)" />
      <stop offset="100%" style="stop-color:rgb(255,0,0)" />
    </radialGradient>
    <radialGradient id="greenball" cx="30%" cy="30%" r="100%" fx="30%" fy="30%">
      <stop offset="0%" style="stop-color:rgb(250,255,250)" />
      <stop offset="3%" style="stop-color:rgb(250,255,250)" />
      <stop offset="7%" style="stop-color:rgb(160,255,160)" />
      <stop offset="70%" style="stop-color:rgb(0,255,0)" />
      <stop offset="100%" style="stop-color:rgb(0,255,0)" />
    </radialGradient>
    <radialGradient id="blueball" cx="30%" cy="30%" r="100%" fx="30%" fy="30%">
      <stop offset="0%" style="stop-color:rgb(250,250,255)" />
      <stop offset="3%" style="stop-color:rgb(250,250,255)" />
      <stop offset="7%" style="stop-color:rgb(160,160,255)" />
      <stop offset="70%" style="stop-color:rgb(0,0,255)" />
      <stop offset="100%" style="stop-color:rgb(0,255,0)" />
    </radialGradient>
    <radialGradient id="yellowball" cx="30%" cy="30%" r="100%" fx="30%" fy="30%">
      <stop offset="0%" style="stop-color:rgb(255,255,250)" />
      <stop offset="3%" style="stop-color:rgb(255,255,250)" />
      <stop offset="7%" style="stop-color:rgb(255,255,160)" />
      <stop offset="70%" style="stop-color:rgb(255,255,0)" />
      <stop offset="100%" style="stop-color:rgb(255,255,0)" />
    </radialGradient>
    <radialGradient id="greyball" cx="30%" cy="30%" r="100%" fx="30%" fy="30%">
      <stop offset="0%" style="stop-color:rgb(250,250,250)" />
      <stop offset="3%" style="stop-color:rgb(250,250,250)" />
      <stop offset="7%" style="stop-color:rgb(160,160,160)" />
      <stop offset="70%" style="stop-color:rgb(100,100,100)" />
      <stop offset="100%" style="stop-color:rgb(100,100,100)" />
    </radialGradient>
  </defs>


</svg>
